<?xml version="1.0" encoding="utf-8"?>
<!-- Svg Vector Icons : http://www.onlinewebfonts.com/icon -->
<!DOCTYPE svg PUBLIC "-//W3C//DTD SVG 1.1//EN" "http://www.w3.org/Graphics/SVG/1.1/DTD/svg11.dtd">
<svg version="1.1" xmlns="http://www.w3.org/2000/svg" xmlns:xlink="http://www.w3.org/1999/xlink" x="0px" y="0px" viewBox="0 0 256 256" enable-background="new 0 0 256 256" xml:space="preserve">
<metadata> Svg Vector Icons : http://www.onlinewebfonts.com/icon </metadata>
<g><g><g><path fill="#000000" d="M64.8,10.5c-4.6,1.5-7.1,3.6-9.4,8.1l-1.1,2.1v30c0,26.4,0.1,30.7,0.8,36.2c4.2,31,16.9,52.1,38,62.6c5.6,2.8,10.5,4.5,16.2,5.7l3.7,0.8l0.2,39.4l0.2,39.4l1.2,2.5c1.7,3.7,3.3,5.3,6.8,7c2.7,1.3,3.6,1.5,6.6,1.5c6,0,10.5-2.8,13-8l1.5-3.1l0.2-39.4l0.2-39.4l3.7-0.8c18.2-3.9,33.1-14.7,42.4-30.8c6.8-11.8,10.9-26.8,12.3-44.4c0.3-4.2,0.5-16.3,0.4-32.8l-0.1-26.1l-1.5-3.1c-1.7-3.5-3.3-5.1-7-6.8c-3.6-1.7-8.9-1.7-12.3,0c-3.5,1.8-4.9,3.2-6.7,6.5l-1.6,2.9l-0.3,31.8c-0.2,19.6-0.5,33.2-0.8,35.3c-1.6,10.6-3.7,17.4-7.3,23c-4.2,6.7-12.8,13.1-19.9,14.6l-1.5,0.3l-0.1-52.4l-0.1-52.3l-1-2.2c-1.7-3.7-3.6-5.7-7-7.3c-2.6-1.3-3.6-1.5-6.6-1.5c-6,0-10.4,2.7-13,8l-1.5,3.1l-0.1,52.3c-0.1,49.3-0.1,52.3-0.9,52.3c-1.5,0-8.2-3-10.9-4.9c-9.2-6.4-14.1-15.4-16.7-31.2c-0.6-4-0.8-9.8-1.1-36.6l-0.3-31.9l-1.2-2.6c-1.5-3.3-4-5.8-7.2-7.2C71.9,10,67.6,9.6,64.8,10.5z"/></g></g></g>
</svg>